<svg width="254" height="164" viewBox="0 0 254 164" fill="none" xmlns="http://www.w3.org/2000/svg">
<path d="M196.5 64.335C194.37 46.3539 185.626 29.8086 171.969 17.9195C158.312 6.03037 140.72 -0.351868 122.617 0.0149801C104.514 0.381828 87.1951 7.47149 74.0312 19.9041C60.8673 32.3367 52.8004 49.2228 51.4006 67.2754L49.6535 89.7328C52.8836 91.1817 56.2927 92.8436 59.8807 94.7186C60.6478 95.1192 61.4149 95.571 62.1819 95.9545L64.3382 68.2811C65.5039 53.4498 72.1412 39.5814 82.9604 29.3702C93.7796 19.1589 108.008 13.334 122.882 13.0269C137.756 12.7199 152.213 17.9527 163.444 27.7088C174.676 37.4649 181.88 51.0476 183.656 65.8181L187.304 98.7158C189.46 97.4545 191.651 96.2528 193.858 95.0851C195.818 94.0454 197.733 93.0794 199.603 92.1874L196.5 64.335ZM129.887 158.793C130.654 157.659 131.438 156.534 132.23 155.435L129.887 158.793ZM126.912 163.761L126.997 163.813L126.929 163.744L126.912 163.761ZM127.006 163.276L126.963 163.216L126.759 163.531L126.997 163.25L127.006 163.276ZM238.211 111.56C238.211 111.56 223.219 112.736 202.568 119.119C198.58 120.355 194.378 121.787 190.032 123.44C183.031 126.096 176.184 129.143 169.526 132.568C162.717 136.114 156.146 140.099 149.855 144.5L149.787 144.551C143.055 149.241 136.701 154.45 130.781 160.131L130.492 160.412L129.017 161.861L128.762 162.117L128.276 162.594L127.602 163.284L126.904 164H126.946C127.074 163.898 127.253 163.761 127.492 163.599L128.199 163.097C129.426 162.244 131.387 160.906 134.003 159.244C136.415 157.736 139.364 155.929 142.833 153.969C158.093 145.314 174.31 138.47 191.157 133.574C195.239 132.398 199.466 131.324 203.821 130.395C215.637 127.812 227.693 126.489 239.787 126.449C244.373 126.449 249.017 126.645 253.722 127.08L238.211 111.56ZM127.014 163.293L126.776 163.574L126.98 163.259L127.023 163.318L127.014 163.293ZM132.247 155.435L129.904 158.793C130.654 157.659 131.438 156.534 132.23 155.435H132.247ZM129.904 158.793C130.671 157.659 131.455 156.534 132.247 155.435L129.904 158.793ZM132.247 155.435L129.904 158.793C130.654 157.659 131.438 156.534 132.23 155.435H132.247ZM233.668 85.122C233.668 85.122 219.563 87.6789 200.199 97.3096C196.296 99.2357 192.179 101.452 187.918 103.991C169.218 115.15 152.657 129.555 139.014 146.528C136.73 149.366 134.472 152.332 132.273 155.426C131.48 156.526 130.696 157.651 129.929 158.784C129.784 158.989 129.656 159.193 129.52 159.398C129.162 159.918 128.804 160.446 128.463 160.983C128.344 161.145 128.242 161.298 128.139 161.46C127.764 162.04 127.381 162.619 127.006 163.165L127.048 163.224C127.33 162.901 127.781 162.372 128.404 161.682L128.719 161.341L130.04 159.884L130.415 159.491C135.999 153.588 141.921 148.013 148.151 142.795C154.163 137.705 160.444 132.942 166.969 128.528C174.061 123.71 181.463 119.365 189.128 115.523C193.108 113.537 197.25 111.653 201.529 109.923C216.446 103.768 232.292 100.164 248.404 99.2613L233.668 85.122ZM125.881 161.545L125.514 160.991C125.191 160.489 124.85 159.986 124.517 159.483L124.048 158.793C123.196 157.531 122.344 156.293 121.492 155.077C119.293 151.974 117.034 149.017 114.75 146.17C100.119 127.964 82.1359 112.73 61.7728 101.29C57.4006 98.8352 53.2501 96.7215 49.287 94.9062C32.1648 86.9886 20.1051 84.7726 20.1051 84.7726L5.29261 98.8777C20.0061 99.6787 34.5057 102.761 48.2728 108.014C52.6023 109.633 56.7955 111.423 60.8438 113.315C69.8543 117.581 78.5221 122.536 86.77 128.136C93.3081 132.56 99.6041 137.331 105.631 142.429C111.96 147.756 117.973 153.448 123.639 159.474L124.074 159.96C124.551 160.472 124.969 160.932 125.327 161.332L125.71 161.759C126.409 162.551 126.844 163.062 126.989 163.241L125.881 161.545ZM126.818 163.642L126.759 163.574L125.335 162.133L125.012 161.81C124.551 161.349 124.083 160.881 123.614 160.429C123.486 160.301 123.367 160.182 123.239 160.071C117.224 154.269 110.757 148.954 103.901 144.176C97.6103 139.78 91.0395 135.8 84.2302 132.261C76.454 128.239 68.4193 124.737 60.1791 121.778C55.7557 120.193 51.5114 118.829 47.5143 117.67C28.7642 112.233 15.5199 111.202 15.5199 111.202L0 126.713C4.70455 126.278 9.37499 126.082 13.9347 126.082C24.9038 126.112 35.8442 127.205 46.6023 129.347C50.9717 130.21 55.233 131.199 59.3864 132.312C77.3828 137.241 94.6929 144.399 110.915 153.619C114.375 155.588 117.35 157.395 119.762 158.92C120.887 159.636 121.892 160.284 122.77 160.872C123.188 161.153 123.622 161.409 123.929 161.656L124.781 162.236L125.08 162.44C125.872 162.994 126.443 163.403 126.784 163.633H126.852L126.98 163.736L126.818 163.642Z" fill="#9D4EDD"/>
</svg>
